<svg xmlns="http://www.w3.org/2000/svg" xmlns:xlink="http://www.w3.org/1999/xlink" aria-hidden="true" role="img" class="iconify iconify--logos" width="31.88" height="32" preserveAspectRatio="xMidYMid meet" viewBox="0 0 256 257"><defs><linearGradient id="IconifyId1813088fe1fbc01fb466" x1=".828%" x2="57.636%" y1="7.652%" y2="78.411%"><stop offset="0%" stop-color="#41D1FF"/><stop offset="100%" stop-color="#BD34FE"/></linearGradient><linearGradient id="IconifyId1813088fe1fbc01fb467" x1="43.376%" x2="50.316%" y1="2.242%" y2="89.03%"><stop offset="0%" stop-color="#FFEA83"/><stop offset="8.333%" stop-color="#FFDD35"/><stop offset="100%" stop-color="#FFA800"/></linearGradient></defs><path fill="url(#IconifyId1813088fe1fbc01fb466)" d="M255.153 37.938c-1.46-2.56-4.12-4.04-7.08-4.04H196.27L167.19 4.82c-1.46-1.46-3.56-2.28-5.72-2.28H94.53c-2.16 0-4.26.82-5.72 2.28L59.73 33.9H7.92c-2.96 0-5.62 1.48-7.08 4.04-1.46 2.56-1.54 5.6-.22 8.22l111.06 210.72c1.38 2.62 4.1 4.24 7.06 4.24s5.68-1.62 7.06-4.24L255.37 46.16c1.32-2.62 1.24-5.66-.22-8.22z"/><path fill="url(#IconifyId1813088fe1fbc01fb467)" d="M185.8 33.9H70.2L128 145.5l57.8-111.6z"/></svg>